<svg xmlns="http://www.w3.org/2000/svg" viewBox="48 5 1886 357" width="1886" height="357"><title>OrangeTree.{ai}</title><path fill="#1A7A30" fill-rule="evenodd" d="M283.5 11L285.5 11L284.5 17L283.5 18L283.5 22L282.5 23L279.5 34L276.5 39L276.5 41L272.5 47L270.5 52L256.5 71L245 82.5L231 92.5L219 98.5L209 100.5L208 101.5L197 101.5L196 100.5L190 99.5L181 94.5L175.5 89L175.5 88L184 82.5L187 81.5L201 71.5L209 63.5L210 63.5L210.5 62L212 61.5L212.5 60L214 59.5L218.5 54L217 53.5L215 55.5L210 57.5L208 59.5L206 59.5L204 61.5L202 61.5L195 65.5L193 65.5L186 68.5L183 68.5L182 69.5L168 69.5L161.5 64L159.5 60L160.5 50L166.5 38L177 27.5L189 21.5L193 21.5L194 20.5L208 20.5L209 19.5L238 19.5L239 18.5L250 18.5L251 17.5L258 17.5L259 16.5L273 14.5L277 12.5L283 11.5ZM82.5 16L83 15.5L89 21.5L95 25.5L100 27.5L102 29.5L104 29.5L126 40.5L128 40.5L130 42.5L132 42.5L134 44.5L140 47.5L148.5 55L153.5 64L153.5 74L152 75.5L149 75.5L144 77.5L139 77.5L138 78.5L125 78.5L124 77.5L116 76.5L108 72.5L96.5 62L90.5 52L90.5 50L88.5 47L88.5 45L86.5 41L86.5 38L85.5 37L84.5 25L83.5 24L83.5 19L82.5 17Z"></path><path fill="#F36621" fill-rule="evenodd" d="M170.5 108L196 107.5L197 108.5L202 108.5L203 109.5L206 109.5L207 110.5L210 110.5L211 111.5L216 112.5L229 118.5L244 128.5L262.5 146L275.5 164L281.5 176L283.5 184L285.5 187L285.5 190L286.5 191L287.5 198L288.5 199L288.5 203L289.5 204L289.5 214L290.5 215L289.5 236L288.5 237L288.5 242L287.5 243L287.5 247L286.5 248L285.5 255L283.5 258L283.5 261L281.5 264L281.5 266L274.5 280L262.5 297L243 315.5L234 321.5L231 322.5L229 324.5L214 331.5L212 331.5L205 334.5L198 335.5L197 336.5L186 337.5L185 338.5L158 338.5L157 337.5L152 337.5L151 336.5L147 336.5L146 335.5L139 334.5L138 333.5L130 331.5L127 329.5L125 329.5L113 323.5L101 315.5L97 311.5L96 311.5L77.5 292L69.5 280L62.5 266L62.5 264L60.5 261L59.5 255L57.5 251L56.5 243L55.5 242L55.5 237L54.5 236L53.5 218L54.5 217L55.5 202L56.5 201L56.5 198L57.5 197L57.5 194L58.5 193L59.5 188L62.5 183L62.5 181L64.5 177L66.5 175L67.5 172L73.5 163L85 150.5L85.5 151L82.5 157L78.5 163L78.5 165L75.5 170L75.5 172L72.5 179L72.5 182L71.5 183L71.5 198L75.5 206L80 210.5L87 214.5L89 214.5L96 217.5L100 217.5L101 218.5L108 218.5L109 219.5L131 219.5L132 218.5L138 218.5L139 217.5L147 216.5L148 215.5L159 212.5L162 210.5L164 210.5L178 203.5L180 201.5L183 200.5L192 194.5L202 185.5L203 185.5L218.5 169L222.5 163L228.5 150L228.5 140L223.5 130L215 122.5L205 118.5L201 118.5L200 117.5L180 117.5L179 118.5L174 118.5L173 119.5L166 120.5L163 122.5L158 123.5L143 131.5L135 137.5L123.5 149L116.5 159L112.5 169L111.5 176L112.5 177L113.5 183L120 189.5L124 191.5L126 191.5L127 192.5L140 192.5L149 188.5L153.5 184L155.5 180L155.5 176L156.5 174L155.5 173L155.5 168L154.5 167L154.5 165L145.5 150L154 145.5L156 145.5L159 143.5L161 143.5L168 140.5L182 138.5L183 139.5L189 139.5L193 141.5L197.5 146L198.5 152L199.5 153L198.5 160L195.5 166L195.5 168L187.5 179L183 183.5L182 183.5L174 190.5L166 194.5L164 196.5L162 196.5L157 199.5L155 199.5L148 202.5L145 202.5L141 204.5L135 204.5L134 205.5L113 205.5L112 204.5L108 204.5L107 203.5L104 203.5L98 200.5L96 200.5L87.5 195L84.5 191L81.5 183L81.5 170L86.5 157L94.5 146L103 137.5L104 137.5L112 130.5L121 124.5L137 116.5L139 116.5L142 114.5L144 114.5L151 111.5L158 110.5L159 109.5L170 108.5Z"></path><path fill="#000000" fill-rule="evenodd" d="M386.5 89L408 88.5L409 89.5L420 90.5L421 91.5L424 91.5L425 92.5L433 94.5L447 101.5L454 106.5L462 114.5L463 114.5L468.5 121L475.5 131L481.5 143L481.5 145L483.5 148L484.5 154L486.5 158L487.5 166L488.5 167L488.5 173L489.5 174L489.5 183L490.5 184L489.5 208L488.5 209L488.5 216L486.5 221L486.5 225L485.5 226L484.5 232L482.5 235L481.5 240L475.5 252L466.5 265L451 279.5L442 284.5L440 286.5L438 286.5L436 288.5L434 288.5L431 290.5L429 290.5L422 293.5L414 294.5L413 295.5L408 295.5L407 296.5L382 296.5L381 295.5L376 295.5L375 294.5L371 294.5L370 293.5L367 293.5L366 292.5L361 291.5L343 282.5L335 275.5L334 275.5L325.5 267L315.5 253L310.5 243L310.5 241L308.5 238L308.5 236L305.5 229L304.5 221L303.5 220L303.5 216L302.5 215L302.5 208L301.5 207L301.5 181L302.5 180L302.5 173L303.5 172L304.5 163L305.5 162L306.5 156L307.5 155L308.5 150L310.5 147L310.5 145L316.5 133L323.5 123L332 113.5L333 113.5L343 104.5L359 95.5L361 95.5L371 91.5L374 91.5L375 90.5L386 89.5ZM1677.5 90L1692 89.5L1692.5 105L1691 106.5L1679 106.5L1678 107.5L1676 107.5L1672 109.5L1666.5 115L1664.5 119L1664.5 121L1663.5 122L1663.5 146L1664.5 147L1665.5 159L1666.5 160L1666.5 168L1667.5 169L1667.5 182L1666.5 183L1666.5 187L1665.5 188L1665.5 191L1661.5 198L1656 203.5L1653 204.5L1651 206.5L1645.5 208L1647 209.5L1652 210.5L1655 212.5L1662.5 220L1666.5 230L1666.5 235L1667.5 236L1667.5 247L1666.5 248L1666.5 256L1665.5 257L1665.5 264L1664.5 265L1664.5 269L1663.5 270L1663.5 281L1662.5 282L1663.5 296L1665.5 299L1665.5 301L1671 307.5L1681 311.5L1692.5 312L1692.5 328L1682 328.5L1681 327.5L1674 327.5L1673 326.5L1669 326.5L1668 325.5L1663 324.5L1656 320.5L1646.5 310L1642.5 300L1642.5 294L1641.5 293L1642.5 270L1643.5 269L1644.5 256L1645.5 255L1645.5 249L1646.5 248L1646.5 232L1643.5 225L1638 219.5L1630 216.5L1623 216.5L1621.5 215L1621.5 201L1630 200.5L1638 197.5L1642.5 194L1644.5 191L1644.5 189L1646.5 185L1646.5 168L1645.5 167L1644.5 153L1643.5 152L1643.5 147L1642.5 146L1642.5 135L1641.5 134L1642.5 117L1643.5 116L1644.5 111L1649.5 103L1657 96.5L1660 95.5L1662 93.5L1664 93.5L1668 91.5L1677 90.5ZM1858.5 90L1871 89.5L1872 90.5L1878 90.5L1879 91.5L1882 91.5L1883 92.5L1888 93.5L1895 97.5L1904.5 108L1908.5 118L1908.5 127L1909.5 128L1909.5 130L1908.5 131L1908.5 144L1907.5 145L1906.5 158L1905.5 159L1905.5 165L1904.5 166L1904.5 187L1907.5 193L1912 197.5L1919 200.5L1928.5 201L1928.5 216L1922 216.5L1921 217.5L1918 217.5L1913 219.5L1906.5 226L1906.5 228L1904.5 231L1904.5 252L1905.5 253L1906.5 266L1907.5 267L1907.5 272L1908.5 273L1908.5 298L1907.5 299L1906.5 305L1903.5 311L1896 319.5L1890 322.5L1888 324.5L1886 324.5L1882 326.5L1878 326.5L1877 327.5L1872 327.5L1871 328.5L1858.5 328L1858.5 312L1870 311.5L1871 310.5L1876 309.5L1879 307.5L1885.5 300L1885.5 298L1887.5 294L1887.5 275L1886.5 274L1885.5 261L1884.5 260L1884.5 255L1883.5 254L1883.5 232L1884.5 231L1885.5 225L1889.5 218L1899 210.5L1904.5 209L1904 207.5L1902 207.5L1896 204.5L1889.5 199L1885.5 192L1884.5 186L1883.5 185L1883.5 165L1884.5 164L1885.5 151L1886.5 150L1886.5 145L1887.5 144L1887.5 123L1886.5 122L1885.5 117L1883.5 114L1877 108.5L1875 108.5L1871 106.5L1859 106.5L1858.5 91ZM1105.5 93L1258.5 93L1258 114.5L1195.5 115L1195.5 212L1194.5 213L1194 294.5L1169 294.5L1167.5 293L1167.5 272L1168.5 271L1168.5 115L1106 114.5L1105.5 94ZM1833.5 93L1841 92.5L1848 95.5L1851.5 99L1854.5 106L1854.5 113L1851.5 119L1848 122.5L1840 125.5L1834 125.5L1833 124.5L1831 124.5L1827 122.5L1824.5 120L1821.5 115L1820.5 107L1821.5 106L1822.5 101L1824.5 98L1829 94.5L1833 93.5ZM390.5 110L401 109.5L402 110.5L408 110.5L409 111.5L416 112.5L419 114.5L421 114.5L425 116.5L431 120.5L440.5 129L440.5 130L447.5 138L455.5 154L455.5 156L458.5 163L459.5 171L460.5 172L460.5 177L461.5 178L461.5 206L460.5 207L459.5 218L457.5 222L457.5 225L456.5 226L455.5 231L450.5 242L442.5 254L430 265.5L419 271.5L417 271.5L413 273.5L410 273.5L409 274.5L404 274.5L403 275.5L388 275.5L387 274.5L383 274.5L382 273.5L379 273.5L378 272.5L373 271.5L359 263.5L345.5 249L341.5 243L335.5 230L335.5 227L334.5 226L332.5 216L331.5 215L330.5 200L329.5 199L329.5 189L330.5 188L331.5 171L332.5 170L333.5 163L334.5 162L335.5 156L337.5 153L337.5 151L345.5 136L358 122.5L365 117.5L376 112.5L383 111.5L384 110.5L390 110.5ZM559.5 146L572 145.5L574.5 147L574.5 170L573 171.5L572 170.5L558 170.5L546 175.5L538.5 182L532.5 191L532.5 193L530.5 196L529.5 202L528.5 203L528.5 209L527.5 210L527.5 293L500.5 293L500.5 158L499.5 157L499.5 149L523.5 149L523.5 175L525 177.5L529.5 167L538 156.5L550 148.5L552 148.5L556 146.5L559 146.5ZM614.5 146L635 145.5L636 146.5L641 146.5L642 147.5L646 147.5L647 148.5L652 149.5L665 157.5L672.5 166L673.5 169L676.5 173L676.5 175L678.5 178L680.5 189L681.5 190L681.5 267L682.5 268L682.5 282L683.5 283L683.5 291L684.5 293L660 293.5L659.5 288L658.5 287L658.5 278L657 275.5L653.5 279L653.5 280L646 286.5L633 293.5L631 293.5L627 295.5L623 295.5L622 296.5L601 296.5L600 295.5L597 295.5L596 294.5L591 293.5L585 290.5L574.5 281L570.5 275L570.5 273L568.5 270L567.5 264L566.5 263L566.5 246L567.5 245L567.5 242L570.5 236L570.5 234L574.5 228L585 217.5L591 214.5L593 212.5L595 212.5L600 209.5L602 209.5L609 206.5L616 205.5L617 204.5L627 203.5L628 202.5L655.5 201L655.5 193L654.5 192L654.5 188L650.5 178L645 171.5L638 167.5L632 166.5L631 165.5L624 165.5L623 164.5L620 164.5L619 165.5L611 165.5L610 166.5L605 166.5L601 168.5L598 168.5L584 175.5L582.5 175L582.5 173L580.5 170L580.5 167L577.5 161L578 157.5L585 153.5L587 153.5L590 151.5L592 151.5L599 148.5L608 147.5L609 146.5L614 146.5ZM768.5 146L783 145.5L784 146.5L788 146.5L789 147.5L795 148.5L805 153.5L815.5 163L823.5 176L823.5 178L825.5 181L825.5 185L827.5 189L827.5 196L828.5 197L828.5 293L801.5 293L801.5 202L800.5 201L800.5 195L798.5 191L798.5 188L793.5 179L785 171.5L781 169.5L774 168.5L773 167.5L762 167.5L761 168.5L757 168.5L754 170.5L750 171.5L744 175.5L737.5 182L733.5 188L733.5 190L731.5 193L730.5 199L729.5 200L729.5 293L702.5 293L702.5 161L701.5 160L701.5 149L724 148.5L725.5 150L725.5 161L726.5 162L727 172.5L730.5 167L744 154.5L747 153.5L749 151.5L751 151.5L759 147.5L768 146.5ZM899.5 146L912 145.5L913 146.5L918 146.5L919 147.5L922 147.5L923 148.5L928 149.5L940 156.5L947.5 164L949.5 168L952 170.5L954 149.5L977.5 150L976.5 151L976.5 259L975.5 260L975.5 290L974.5 291L974.5 300L972.5 305L972.5 309L971.5 310L969.5 318L962.5 331L951 342.5L945 346.5L937 350.5L935 350.5L928 353.5L925 353.5L924 354.5L920 354.5L919 355.5L911 355.5L910 356.5L892 356.5L891 355.5L883 355.5L882 354.5L873 353.5L872 352.5L869 352.5L868 351.5L863 350.5L858 347.5L856 347.5L851.5 344L858 324.5L870 330.5L872 330.5L876 332.5L879 332.5L880 333.5L883 333.5L884 334.5L890 334.5L891 335.5L911 335.5L912 334.5L917 334.5L918 333.5L923 332.5L931 328.5L936.5 324L936.5 323L941.5 318L947.5 305L947.5 301L948.5 300L948.5 296L949.5 295L949 269.5L937 282.5L931 286.5L927 288.5L925 288.5L922 290.5L916 291.5L915 292.5L908 292.5L907 293.5L896 293.5L895 292.5L889 292.5L888 291.5L885 291.5L879 288.5L877 288.5L865 281.5L850.5 266L842.5 250L842.5 247L840.5 243L839.5 232L838.5 231L838.5 214L839.5 213L839.5 207L840.5 206L840.5 201L842.5 197L842.5 194L844.5 191L844.5 188L848.5 180L859.5 165L873 154.5L889 147.5L899 146.5ZM1050.5 146L1062 145.5L1063 146.5L1069 146.5L1070 147.5L1074 147.5L1075 148.5L1080 149.5L1093 156.5L1103.5 167L1111.5 181L1112.5 186L1114.5 189L1114.5 193L1116.5 197L1116.5 204L1117.5 205L1117.5 222L1116.5 223L1116.5 226L1013 226.5L1012.5 233L1013.5 234L1013.5 238L1014.5 239L1014.5 243L1015.5 244L1016.5 249L1022.5 259L1031 267.5L1042 273.5L1045 273.5L1049 275.5L1054 275.5L1055 276.5L1076 276.5L1077 275.5L1089 274.5L1090 273.5L1093 273.5L1104 269.5L1106.5 276L1106.5 280L1108.5 284L1108.5 288L1098 292.5L1095 292.5L1090 294.5L1085 294.5L1084 295.5L1079 295.5L1078 296.5L1046 296.5L1045 295.5L1036 294.5L1035 293.5L1030 292.5L1027 290.5L1025 290.5L1012 282.5L1001.5 272L993.5 259L993.5 257L991.5 254L991.5 252L989.5 248L989.5 244L987.5 239L987.5 233L986.5 232L986.5 216L987.5 215L987.5 209L988.5 208L989.5 199L990.5 198L993.5 187L995.5 185L995.5 183L997.5 179L1004.5 169L1013 160.5L1020 155.5L1023 154.5L1025 152.5L1027 152.5L1035 148.5L1043 147.5L1044 146.5L1050 146.5ZM1321.5 146L1323 145.5L1324 146.5L1330.5 147L1330.5 171L1324 171.5L1323 170.5L1319 170.5L1318 171.5L1313 171.5L1312 172.5L1307 173.5L1302 176.5L1295.5 182L1290.5 189L1287.5 195L1286.5 201L1284.5 205L1284.5 234L1283.5 235L1283.5 294L1257.5 294L1257.5 169L1256.5 168L1256.5 151L1255.5 150L1279.5 150L1279.5 156L1280.5 157L1280.5 177L1282 177.5L1284.5 172L1284.5 170L1288.5 164L1292.5 160L1292.5 159L1299 153.5L1311 147.5L1321 146.5ZM1381.5 147L1404 146.5L1405 147.5L1410 147.5L1423 152.5L1433 159.5L1441.5 169L1449.5 184L1449.5 187L1450.5 188L1452.5 198L1453.5 199L1453.5 205L1454.5 206L1455 209.5L1455.5 205L1456.5 204L1456.5 200L1458.5 196L1458.5 193L1467.5 175L1482 159.5L1491 153.5L1507 147.5L1512 147.5L1513 146.5L1534 146.5L1535 147.5L1540 147.5L1541 148.5L1549 150.5L1558 155.5L1569.5 166L1574.5 173L1579.5 183L1579.5 185L1581.5 189L1581.5 192L1582.5 193L1582.5 196L1583.5 197L1583.5 202L1584.5 203L1584.5 225L1583 226.5L1480 226.5L1479.5 231L1480.5 232L1481.5 243L1486.5 255L1493 263.5L1504 271.5L1506 271.5L1509 273.5L1511 273.5L1515 275.5L1519 275.5L1520 276.5L1547 276.5L1548 275.5L1553 275.5L1554 274.5L1561 273.5L1571 269.5L1573.5 275L1573.5 279L1575.5 284L1575.5 288L1572 290.5L1570 290.5L1566 292.5L1563 292.5L1559 294.5L1555 294.5L1554 295.5L1539 296.5L1538 297.5L1519 297.5L1518 296.5L1511 296.5L1510 295.5L1502 294.5L1501 293.5L1496 292.5L1484 286.5L1467.5 271L1464.5 265L1462.5 263L1456.5 248L1456.5 244L1455.5 243L1455.5 239L1454.5 238L1454 226.5L1350 226.5L1349.5 235L1350.5 236L1350.5 240L1351.5 241L1351.5 244L1352.5 245L1353.5 250L1359.5 260L1365 265.5L1372 270.5L1376 272.5L1378 272.5L1385 275.5L1389 275.5L1390 276.5L1415 276.5L1416 275.5L1422 275.5L1423 274.5L1431 273.5L1441 269.5L1441.5 273L1443.5 277L1443.5 281L1445.5 285L1445.5 288L1444 289.5L1439 290.5L1436 292.5L1429 293.5L1428 294.5L1418 295.5L1417 296.5L1407 296.5L1406 297.5L1389 297.5L1388 296.5L1376 295.5L1375 294.5L1372 294.5L1371 293.5L1366 292.5L1351 284.5L1347 280.5L1346 280.5L1336.5 270L1332.5 264L1332.5 262L1330.5 260L1330.5 258L1328.5 255L1328.5 253L1326.5 249L1326.5 246L1325.5 245L1325.5 242L1324.5 241L1324.5 233L1323.5 232L1324.5 207L1325.5 206L1326.5 198L1328.5 195L1328.5 192L1330.5 189L1330.5 187L1334.5 179L1341.5 169L1350 160.5L1357 155.5L1367 150.5L1369 150.5L1373 148.5L1376 148.5L1377 147.5L1381 147.5ZM1736.5 147L1757 146.5L1758 147.5L1764 147.5L1765 148.5L1771 149.5L1774 151.5L1776 151.5L1780 154.5L1783 155.5L1793.5 166L1799.5 177L1799.5 179L1801.5 183L1801.5 187L1802.5 188L1802.5 193L1803.5 194L1803.5 276L1804.5 277L1805.5 294L1782 294.5L1781.5 291L1780.5 290L1780.5 282L1779.5 281L1779 276.5L1769 286.5L1757 293.5L1755 293.5L1748 296.5L1744 296.5L1743 297.5L1723 297.5L1722 296.5L1719 296.5L1718 295.5L1713 294.5L1704 289.5L1695.5 281L1690.5 272L1690.5 270L1688.5 266L1688.5 259L1687.5 258L1687.5 254L1688.5 253L1688.5 245L1694.5 231L1704 220.5L1711 215.5L1721 210.5L1723 210.5L1730 207.5L1733 207.5L1738 205.5L1742 205.5L1743 204.5L1749 204.5L1750 203.5L1776.5 202L1776.5 189L1775.5 188L1774.5 183L1772.5 179L1764 170.5L1760 168.5L1758 168.5L1754 166.5L1731 166.5L1730 167.5L1727 167.5L1726 168.5L1723 168.5L1722 169.5L1714 171.5L1705 176.5L1704.5 176L1701.5 166L1698.5 160L1701 157.5L1717 150.5L1720 150.5L1721 149.5L1724 149.5L1729 147.5L1736 147.5ZM1824.5 150L1851.5 150L1851 294.5L1824.5 294L1824.5 151ZM1049.5 165L1059 164.5L1060 165.5L1064 165.5L1065 166.5L1068 166.5L1077 171.5L1083.5 178L1087.5 185L1087.5 187L1089.5 190L1089.5 193L1090.5 194L1090.5 198L1091.5 199L1091.5 207L1013 207.5L1013.5 203L1014.5 202L1014.5 198L1015.5 197L1016.5 192L1022.5 181L1035 169.5L1041 166.5L1049 165.5ZM1390.5 165L1404 166.5L1412 170.5L1417.5 175L1422.5 182L1424.5 186L1424.5 188L1426.5 191L1426.5 195L1427.5 196L1427.5 200L1428.5 201L1428.5 207L1349.5 207L1350.5 202L1351.5 201L1351.5 197L1359.5 181L1372 169.5L1383 165.5L1390 165.5ZM1513.5 166L1529 165.5L1530 166.5L1534 166.5L1537 168.5L1539 168.5L1545 172.5L1552.5 181L1554.5 185L1554.5 187L1556.5 190L1556.5 193L1558.5 198L1558.5 207L1481 207.5L1480.5 204L1481.5 203L1481.5 199L1482.5 198L1483.5 193L1491.5 179L1501 170.5L1507 167.5L1513 166.5ZM902.5 167L917 166.5L918 167.5L924 168.5L932 172.5L938.5 178L946.5 190L946.5 192L948.5 196L948.5 199L949.5 200L949.5 237L948.5 238L948.5 242L947.5 243L947.5 246L945.5 249L945.5 251L938.5 261L929 268.5L919 272.5L914 272.5L913 273.5L900 272.5L899 271.5L893 270.5L883 264.5L874.5 255L869.5 245L869.5 242L867.5 239L867.5 234L866.5 233L865.5 217L866.5 216L867.5 203L868.5 202L870.5 194L874.5 186L885 174.5L891 170.5L893 170.5L899 167.5L902 167.5ZM641.5 220L655.5 220L655.5 251L649.5 263L643 269.5L635 274.5L633 274.5L629 276.5L625 276.5L624 277.5L614 277.5L603 273.5L595.5 265L595.5 263L593.5 259L593.5 246L594.5 245L595.5 240L605 229.5L612 225.5L614 225.5L621 222.5L631 221.5L632 220.5L641 220.5ZM1762.5 221L1777.5 221L1777.5 250L1776.5 251L1776.5 254L1772.5 262L1768.5 266L1768.5 267L1762 272.5L1754 276.5L1746 277.5L1745 278.5L1736 278.5L1725 274.5L1718.5 268L1715.5 261L1715.5 256L1714.5 255L1715.5 245L1719.5 237L1725 231.5L1736 225.5L1738 225.5L1742 223.5L1746 223.5L1747 222.5L1751 222.5L1752 221.5L1762 221.5ZM1605.5 260L1608 259.5L1609 260.5L1613 260.5L1617 262.5L1622.5 268L1625.5 276L1625.5 282L1622.5 290L1617 295.5L1612 297.5L1602 297.5L1601 296.5L1599 296.5L1591.5 290L1588.5 283L1588.5 275L1589.5 274L1589.5 272L1591.5 268L1597 262.5L1601 260.5L1605 260.5Z"></path></svg>