<svg xmlns="http://www.w3.org/2000/svg" width="1362" height="1500" viewBox="0 0 1362 1500"><title>OrangeTree Global</title><g fill-rule="evenodd"><path fill="#1A7A30" d="M1067 -0.5L1052 5.5L1024 13.5L964 24.5L933 26.5L923 28.5L920 27.5L910 29.5L884 29.5L867 31.5L835 31.5L834 32.5L790 32.5L789 33.5L760 34.5L740 38.5L724 44.5L709 52.5L692 64.5L669.5 87L657.5 104L647.5 123L640.5 147L640.5 169L643.5 178L648.5 187L654 192.5L664 198.5L680 202.5L709 201.5L738 194.5L770 182.5L811 162.5L845 142.5L839.5 151L830.5 161L803 188.5L781 207.5L752 229.5L716 252.5L694 263.5L693.5 266L709 282.5L725 294.5L746 304.5L761 308.5L776 310.5L802 309.5L827 304.5L852 295.5L888 276.5L925 249.5L963.5 213L996.5 173L1022.5 133L1044.5 89L1060.5 44L1068.5 7L1068.5 0L1067 -0.5ZM374 15.5L373.5 17L379.5 33L382.5 66L387.5 93L398.5 129L407.5 149L421.5 172L428.5 181L448 200.5L467 213.5L489 223.5L507 228.5L529 231.5L555 231.5L573 229.5L590 226.5L619.5 218L619.5 195L614.5 176L606.5 161L600.5 153L584 136.5L563 121.5L546 111.5L520 98.5L456 70.5L423 53.5L393 33.5L374 15.5Z"></path><path fill="#F36621" d="M921 27.5L921 28.5L923.5 28L921 27.5ZM844 142.5L842.5 144L843 145.5L845.5 143L844 142.5ZM695 331.5L659 335.5L629 341.5L600 349.5L564 362.5L506 391.5L484 405.5L456 426.5L440 440.5L410.5 472L393.5 496L381.5 519L376.5 532L371.5 554L371.5 583L374.5 597L382.5 615L390.5 627L396 632.5L413 643.5L434 653.5L453 658.5L456 660.5L474 664.5L483 664.5L501 667.5L528 667.5L559 664.5L600 655.5L641 640.5L674 623.5L702 604.5L728.5 581L751.5 553L765.5 528L770.5 515L773.5 502L773.5 479L770.5 469L765.5 460L756 450.5L748 445.5L737 441.5L726 439.5L700 439.5L685 441.5L654 449.5L629 458.5L604 469.5L590.5 477L590.5 479L606.5 500L619.5 524L626.5 546L627.5 567L624.5 580L614.5 597L599 610.5L580 619.5L561 623.5L532 622.5L518 618.5L516 616.5L513 616.5L498 607.5L486.5 596L482.5 590L476.5 572L476.5 552L482.5 529L492.5 508L504.5 489L516.5 473L532.5 455L561 429.5L595 406.5L626 390.5L648 381.5L690 369.5L723 364.5L766 364.5L790 368.5L807 373.5L823 380.5L836 388.5L845 395.5L858.5 410L870.5 431L875.5 446L874.5 474L868.5 493L859.5 512L850.5 527L829.5 555L810.5 576L788 597.5L745 631.5L694 663.5L673 674.5L641 688.5L599 702.5L591 703.5L579 707.5L573 707.5L564 710.5L549 711.5L541 713.5L521 713.5L520 714.5L465 713.5L457 711.5L435 709.5L431 707.5L426 707.5L410 703.5L393 697.5L377 689.5L368 683.5L355.5 672L344.5 656L339.5 643L336.5 629L337.5 595L345.5 563L359.5 528L372.5 502L384.5 482L385.5 480L384 479.5L364.5 499L339.5 530L322.5 556L305.5 589L295.5 614L286.5 645L280.5 676L278.5 708L277.5 709L278.5 711L277.5 712L278.5 749L282.5 783L288.5 813L299.5 851L311.5 881L329.5 917L352.5 953L381.5 989L413 1020.5L435 1038.5L476 1066.5L504 1081.5L538 1096.5L571 1107.5L604 1115.5L650 1121.5L726 1120.5L760 1115.5L764 1113.5L778 1111.5L781 1109.5L785 1109.5L809 1102.5L840 1090.5L842 1088.5L853 1084.5L877 1072.5L906 1054.5L935 1033.5L962 1009.5L995.5 973L1015.5 946L1037.5 910L1053.5 877L1065.5 846L1079.5 791L1084.5 752L1085.5 705L1084.5 704L1083.5 671L1077.5 635L1068.5 602L1052.5 560L1032.5 521L1003.5 479L976.5 448L943 416.5L913 393.5L875 369.5L844 354.5L803 340.5L776 334.5L752 331.5L695 331.5Z"></path><path fill="#000000" d="M86 1123.5L68 1127.5L50 1135.5L37 1144.5L21.5 1161L14.5 1172L5.5 1193L0.5 1217L-0.5 1241L2.5 1265L8.5 1284L18.5 1303L35 1321.5L46 1329.5L69 1339.5L86 1342.5L104 1342.5L129 1337.5L146 1329.5L156 1322.5L173.5 1304L184.5 1284L190.5 1265L193.5 1246L193.5 1216L189.5 1194L182.5 1175L170.5 1156L157 1142.5L145 1134.5L129 1127.5L110 1123.5L86 1123.5ZM863 1126.5L861.5 1128L861.5 1149L863 1150.5L926.5 1151L926.5 1338L928 1339.5L953 1339.5L954.5 1338L954.5 1151L1018 1150.5L1019.5 1149L1019.5 1128L1018 1126.5L863 1126.5ZM91 1145.5L80 1147.5L64 1154.5L47.5 1170L43.5 1176L36.5 1190L30.5 1212L29.5 1248L31.5 1260L36.5 1276L48.5 1297L59 1307.5L72 1315.5L85 1319.5L101 1320.5L113 1318.5L131 1310.5L144.5 1298L151.5 1288L158.5 1273L163.5 1254L164.5 1219L161.5 1202L157.5 1190L145.5 1169L134 1157.5L120 1149.5L103 1145.5L91 1145.5ZM273 1183.5L266 1185.5L255 1191.5L245.5 1201L238 1216.5L236.5 1216L235.5 1187L211.5 1187L211.5 1199L212.5 1200L212.5 1338L214 1339.5L239 1339.5L240.5 1338L240.5 1248L244.5 1233L249.5 1224L261 1213.5L272 1209.5L287.5 1210L287.5 1184L273 1183.5ZM335 1183.5L320 1186.5L306 1191.5L299 1195.5L297.5 1198L302.5 1213L305 1214.5L316 1208.5L337 1203.5L349 1203.5L361 1206.5L371.5 1215L375.5 1222L377.5 1229L377.5 1242L357 1242.5L337 1245.5L321 1250.5L305 1259.5L295.5 1269L288.5 1282L286.5 1291L286.5 1306L288.5 1314L294.5 1325L304 1334.5L320 1341.5L340 1342.5L356 1338.5L371 1329.5L380 1319.5L381.5 1333L384 1339.5L407 1339.5L407.5 1333L405.5 1322L405.5 1236L400.5 1214L394.5 1203L385 1193.5L377 1188.5L359 1183.5L335 1183.5ZM501 1183.5L489 1186.5L477 1192.5L464.5 1204L460 1211.5L458.5 1207L458.5 1192L457 1186.5L433.5 1187L435 1339.5L461 1339.5L462.5 1338L462.5 1238L471.5 1220L483 1210.5L494 1206.5L509 1206.5L518 1209.5L528.5 1219L534.5 1232L536.5 1244L536.5 1339L563 1339.5L564.5 1338L564.5 1247L563.5 1246L563.5 1233L559.5 1217L549.5 1200L538 1190.5L530 1186.5L519 1183.5L501 1183.5ZM641 1183.5L627 1187.5L613 1195.5L601.5 1206L595.5 1214L587.5 1230L583.5 1245L582.5 1275L586.5 1293L595.5 1311L609 1325.5L616 1330.5L627 1335.5L640 1338.5L654 1338.5L668 1335.5L683 1327.5L692.5 1318L694.5 1314L696.5 1314L696.5 1337L692.5 1356L685.5 1368L674 1377.5L660 1382.5L642 1383.5L620 1379.5L603 1371.5L601.5 1373L595.5 1391L597 1393.5L610 1399.5L626 1403.5L660 1404.5L681 1399.5L690 1395.5L700 1388.5L710.5 1377L718.5 1360L723.5 1330L723.5 1200L724.5 1199L724.5 1187L701 1186.5L699.5 1193L699 1209.5L690 1197.5L675 1187.5L661 1183.5L641 1183.5ZM803 1183.5L788 1187.5L772 1196.5L760.5 1208L751.5 1222L746.5 1235L742.5 1256L742.5 1275L748.5 1300L755.5 1313L768 1326.5L775 1331.5L790 1338.5L803 1341.5L824 1342.5L843 1340.5L865 1334.5L868.5 1332L863 1313.5L852 1317.5L836 1320.5L806 1319.5L797 1316.5L787 1310.5L780.5 1304L774.5 1295L769.5 1278L770 1267.5L876.5 1267L877.5 1251L874.5 1231L868.5 1215L860.5 1203L849 1192.5L837 1186.5L825 1183.5L803 1183.5ZM1072 1183.5L1065 1185.5L1054 1191.5L1042.5 1204L1037 1216.5L1035.5 1216L1034.5 1187L1010.5 1187L1011.5 1197L1011.5 1338L1013 1339.5L1038 1339.5L1039.5 1338L1039.5 1248L1043.5 1233L1049.5 1223L1060 1213.5L1071 1209.5L1085 1209.5L1086 1210.5L1087.5 1209L1087.5 1185L1086 1183.5L1072 1183.5ZM1145 1183.5L1130 1187.5L1117 1194.5L1103.5 1207L1096.5 1217L1088.5 1236L1084.5 1258L1084.5 1272L1088.5 1294L1093.5 1306L1101.5 1318L1114 1329.5L1132 1338.5L1145 1341.5L1166 1342.5L1186 1340.5L1202 1336.5L1210.5 1332L1206 1313.5L1194 1317.5L1178 1320.5L1149 1319.5L1142 1317.5L1127 1308.5L1120.5 1301L1115.5 1292L1111.5 1277L1112 1267.5L1218.5 1267L1219.5 1248L1217.5 1235L1212.5 1219L1203.5 1204L1194 1194.5L1182 1187.5L1167 1183.5L1145 1183.5ZM1287 1183.5L1272 1187.5L1255 1197.5L1242.5 1211L1233.5 1227L1228.5 1244L1226.5 1259L1227.5 1281L1232.5 1299L1240.5 1314L1251 1325.5L1259 1331.5L1274 1338.5L1287 1341.5L1309 1342.5L1333 1339.5L1344 1336.5L1352.5 1332L1348 1313.5L1345 1313.5L1336 1317.5L1320 1320.5L1291 1319.5L1284 1317.5L1269 1308.5L1262.5 1301L1257.5 1292L1253.5 1277L1254 1267.5L1360.5 1267L1361.5 1248L1359.5 1235L1354.5 1219L1345.5 1204L1336 1194.5L1324 1187.5L1309 1183.5L1287 1183.5ZM803 1203.5L791 1208.5L779.5 1220L771.5 1236L769.5 1244L769.5 1247L771 1248.5L849 1248.5L850.5 1247L847.5 1228L844.5 1221L837 1211.5L821 1203.5L803 1203.5ZM1146 1203.5L1139 1205.5L1132 1209.5L1121.5 1220L1113.5 1237L1111.5 1246L1113 1248.5L1192.5 1248L1192.5 1239L1189.5 1227L1183.5 1216L1178 1210.5L1170 1205.5L1163 1203.5L1146 1203.5ZM1288 1203.5L1281 1205.5L1274 1209.5L1263.5 1220L1255.5 1237L1253.5 1246L1255 1248.5L1333 1248.5L1334.5 1247L1334.5 1240L1331.5 1227L1327.5 1219L1320 1210.5L1312 1205.5L1305 1203.5L1288 1203.5ZM652 1204.5L646 1205.5L634 1210.5L619.5 1225L614.5 1235L611.5 1246L610.5 1272L615.5 1291L620.5 1300L626 1306.5L634 1312.5L641 1315.5L650 1317.5L660 1317.5L671 1314.5L682 1307.5L688.5 1300L693.5 1291L695.5 1284L695.5 1237L689.5 1223L680 1212.5L665 1205.5L652 1204.5ZM358 1261.5L333 1267.5L326 1271.5L318.5 1279L314.5 1288L314.5 1303L318.5 1312L327 1319.5L340 1322.5L353 1320.5L363 1315.5L374.5 1303L378.5 1292L378.5 1262L358 1261.5ZM235 1411.5L225 1414.5L219.5 1422L218.5 1428L218.5 1483L221.5 1493L227 1497.5L235 1499.5L306 1499.5L312 1498.5L318 1495.5L322.5 1486L322 1448.5L269.5 1449L270 1463.5L302.5 1464L302 1482.5L240 1482.5L238.5 1481L238.5 1432L240 1427.5L302 1427.5L303 1436.5L314 1435.5L322.5 1433L322.5 1425L319.5 1417L315 1413.5L307 1411.5L235 1411.5ZM401 1411.5L399.5 1413L399.5 1499L485 1499.5L485 1482.5L420.5 1482L420.5 1413L419 1411.5L401 1411.5ZM564 1411.5L556 1413.5L550.5 1418L547.5 1430L547.5 1482L549.5 1491L554 1496.5L564 1499.5L639 1499.5L648 1497.5L652.5 1494L655.5 1487L655.5 1424L654.5 1420L650 1414.5L640 1411.5L564 1411.5ZM734 1411.5L732.5 1413L732.5 1498L734 1499.5L808 1499.5L820 1496.5L825.5 1492L828.5 1485L827.5 1464L824 1458.5L814.5 1454L823 1450.5L827.5 1443L827.5 1424L825.5 1419L821 1414.5L812 1411.5L734 1411.5ZM935 1411.5L885.5 1499L905 1499.5L915 1480.5L971 1480.5L982 1499.5L1004 1499.5L954.5 1412L935 1411.5ZM1067 1411.5L1066.5 1499L1152 1499.5L1152 1482.5L1096 1483.5L1086.5 1482L1086.5 1412L1067 1411.5ZM754 1425.5L752.5 1427L753 1446.5L804 1446.5L808.5 1443L808.5 1430L807 1427.5L802 1425.5L754 1425.5ZM569 1427.5L569 1482.5L635.5 1482L635 1427.5L569 1427.5ZM943 1429.5L924.5 1464L962 1464.5L946.5 1433L943 1429.5ZM753 1461.5L753 1483.5L804 1483.5L809.5 1478L809.5 1467L808.5 1464L805 1461.5L753 1461.5Z"></path></g></svg>