<svg xmlns="http://www.w3.org/2000/svg" viewBox="24 245 1121 1262" width="1121" height="1262"><title>OrangeTree icon</title><path fill="#1A7A30" fill-rule="evenodd" d="M1112.5 253L1119 252.5L1119.5 259L1118.5 260L1118.5 263L1117.5 264L1117.5 268L1116.5 269L1116.5 273L1115.5 274L1114.5 282L1113.5 283L1113.5 286L1112.5 287L1112.5 291L1111.5 292L1110.5 300L1108.5 303L1108.5 305L1107.5 306L1105.5 314L1103.5 317L1103.5 319L1102.5 320L1100.5 328L1098.5 331L1096.5 339L1094.5 342L1093.5 347L1068.5 397L1058.5 411L1057.5 414L1055.5 416L1055.5 417L1053.5 419L1053.5 420L1051.5 422L1051.5 423L1047.5 428L1046.5 431L1044.5 433L1042.5 437L1039.5 440L1039.5 441L1024.5 458L1024.5 459L1010.5 475L1010.5 476L1005.5 481L1005.5 482L1004 482.5L985 501.5L984 501.5L966 519.5L965 519.5L961 523.5L957 525.5L954 528.5L953 528.5L950 531.5L946 533.5L939 539.5L935 541.5L928 547.5L916 553.5L914 555.5L895 564.5L893 566.5L885 570.5L877 572.5L874 574.5L872 574.5L866 577.5L864 577.5L860 579.5L857 579.5L856 580.5L852 580.5L851 581.5L842 582.5L841 583.5L833 584.5L832 585.5L808 585.5L807 586.5L803 586.5L802 585.5L796 585.5L795 584.5L789 584.5L788 583.5L785 583.5L784 582.5L777 581.5L776 580.5L771 579.5L764 575.5L762 575.5L747 567.5L744 564.5L743 564.5L740 561.5L739 561.5L736 558.5L735 558.5L732 555.5L731 555.5L730.5 554L715.5 539L715.5 536L717 534.5L740 523.5L742 521.5L745 520.5L747 518.5L748 518.5L756 512.5L759 511.5L767 505.5L770 504.5L772 502.5L779 498.5L786 492.5L787 492.5L791 488.5L792 488.5L807 476.5L808 476.5L826 460.5L827 460.5L865.5 422L865.5 421L872.5 414L874.5 410L878.5 406L877 404.5L875 407.5L870 409.5L868 411.5L865 412.5L863 414.5L860 415.5L853 420.5L848 422.5L846 424.5L841 426.5L839 428.5L837 428.5L798 448.5L796 448.5L793 450.5L788 451.5L785 453.5L780 454.5L777 456.5L772 457.5L769 459.5L767 459.5L766 460.5L764 460.5L760 462.5L757 462.5L756 463.5L753 463.5L752 464.5L749 464.5L748 465.5L745 465.5L744 466.5L740 466.5L739 467.5L736 467.5L735 468.5L732 468.5L731 469.5L703 469.5L701 470.5L700 469.5L697 469.5L696 468.5L693 468.5L692 467.5L685 466.5L679 463.5L677 461.5L674 460.5L665.5 452L660.5 442L660.5 440L659.5 439L659.5 437L657.5 433L657.5 410L658.5 409L659.5 403L660.5 402L660.5 400L662.5 396L662.5 393L664.5 389L664.5 386L670.5 374L672.5 372L676.5 363L681.5 357L683.5 353L686.5 350L688.5 346L714 320.5L715 320.5L718 317.5L725 313.5L728 310.5L750 298.5L752 298.5L755 296.5L760 295.5L766 292.5L770 292.5L771 291.5L775 291.5L776 290.5L780 290.5L781 289.5L785 289.5L786 288.5L809 288.5L810 287.5L818 287.5L819 286.5L866 286.5L867 285.5L906 285.5L907 284.5L914 284.5L915 283.5L949 283.5L950 282.5L954 282.5L955 281.5L963 282.5L964 281.5L968 281.5L969 280.5L973 280.5L974 279.5L1005 278.5L1006 277.5L1011 277.5L1012 276.5L1016 276.5L1017 275.5L1022 275.5L1023 274.5L1027 274.5L1028 273.5L1032 273.5L1033 272.5L1038 272.5L1039 271.5L1043 271.5L1044 270.5L1049 270.5L1050 269.5L1054 269.5L1055 268.5L1060 268.5L1061 267.5L1070 266.5L1071 265.5L1078 264.5L1082 262.5L1085 262.5L1089 260.5L1092 260.5L1096 258.5L1099 258.5L1100 257.5L1102 257.5L1103 256.5L1105 256.5L1108 254.5L1112 253.5ZM370.5 269L371 268.5L373 269.5L391 287.5L395 289.5L398 292.5L399 292.5L401 294.5L402 294.5L425 310.5L452 323.5L454 325.5L460 328.5L462 328.5L465 330.5L467 330.5L472 333.5L474 333.5L479 336.5L481 336.5L488 340.5L490 340.5L495 343.5L497 343.5L504 347.5L506 347.5L511 350.5L513 350.5L518 353.5L520 353.5L527 357.5L529 357.5L531 359.5L533 359.5L535 361.5L558 372.5L560 374.5L563 375.5L565 377.5L573 381.5L575 383.5L579 385.5L582 388.5L586 390.5L589 393.5L593 395.5L596 398.5L597 398.5L616.5 418L616.5 419L621.5 425L623.5 430L625.5 432L626.5 436L629.5 440L629.5 442L631.5 446L631.5 449L632.5 450L632.5 453L633.5 454L633.5 457L634.5 458L634.5 461L635.5 462L635 486.5L633 487.5L630 487.5L626 489.5L623 489.5L619 491.5L616 491.5L612 493.5L609 493.5L605 495.5L601 495.5L600 496.5L596 496.5L595 497.5L590 497.5L589 498.5L584 498.5L583 499.5L575 499.5L574 500.5L532 500.5L531 499.5L524 499.5L523 498.5L517 498.5L516 497.5L512 497.5L508 495.5L505 495.5L501 493.5L498 493.5L497 492.5L492 491.5L483 486.5L481 486.5L469 480.5L467 478.5L466 478.5L464 476.5L463 476.5L461 474.5L460 474.5L458 472.5L451 468.5L428.5 446L428.5 445L422.5 438L422.5 437L418.5 432L417.5 429L415.5 427L414.5 424L412.5 422L411.5 419L409.5 417L408.5 414L406.5 412L405.5 408L402.5 403L402.5 401L398.5 394L398.5 392L397.5 391L397.5 389L396.5 388L396.5 386L395.5 385L395.5 383L393.5 379L393.5 376L392.5 375L392.5 373L390.5 369L390.5 366L389.5 365L389.5 363L388.5 362L388.5 360L386.5 356L385.5 349L384.5 348L384.5 343L383.5 342L383.5 338L382.5 337L382.5 333L381.5 332L381.5 327L380.5 326L380.5 320L379.5 319L379.5 309L378.5 308L378.5 299L377.5 298L377.5 288L376.5 287L375.5 282L373.5 279L373.5 277L371.5 274L370.5 270ZM87.5 1462L88 1461.5L89 1462.5L93 1462.5L93 1463.5L89 1463.5L88 1462.5ZM100.5 1465L103 1464.5L104 1465.5L107 1465.5L107 1466.5L101 1465.5ZM39.5 1467L40.5 1467L40.5 1470L37.5 1470L37.5 1468L39 1467.5ZM71.5 1485L72 1484.5L72 1485.5ZM31.5 1498L32.5 1498L32.5 1499L31.5 1499Z"></path><path fill="#F36621" fill-rule="evenodd" d="M959.5 282L961 281.5L961.5 282L960 282.5ZM876.5 405L877 404.5L878.5 406L876 408.5L876 405.5ZM715.5 609L779 608.5L780 609.5L787 609.5L788 610.5L802 611.5L803 612.5L807 612.5L808 613.5L812 613.5L813 614.5L816 614.5L817 615.5L821 615.5L822 616.5L826 616.5L827 617.5L834 618.5L835 619.5L837 619.5L838 620.5L840 620.5L841 621.5L843 621.5L844 622.5L846 622.5L847 623.5L849 623.5L850 624.5L852 624.5L853 625.5L855 625.5L856 626.5L858 626.5L859 627.5L861 627.5L862 628.5L864 628.5L865 629.5L867 629.5L868 630.5L876 632.5L889 639.5L891 639.5L911 649.5L913 651.5L919 654.5L927 660.5L930 661.5L938 667.5L941 668.5L943 670.5L944 670.5L946 672.5L953 676.5L956 679.5L957 679.5L960 682.5L961 682.5L964 685.5L965 685.5L969 689.5L970 689.5L973 692.5L974 692.5L977 695.5L978 695.5L981 698.5L982 698.5L1023.5 738L1023.5 739L1044.5 762L1044.5 763L1049.5 768L1051.5 772L1054.5 775L1054.5 776L1056.5 778L1056.5 779L1058.5 781L1062.5 788L1065.5 791L1065.5 792L1067.5 794L1067.5 795L1069.5 797L1069.5 798L1071.5 800L1075.5 807L1080.5 813L1104.5 861L1105.5 866L1107.5 869L1107.5 871L1109.5 874L1110.5 879L1114.5 887L1114.5 889L1117.5 895L1117.5 897L1118.5 898L1118.5 900L1120.5 904L1120.5 907L1122.5 911L1123.5 918L1125.5 922L1126.5 929L1127.5 930L1128.5 936L1129.5 937L1129.5 942L1130.5 943L1130.5 948L1131.5 949L1131.5 954L1132.5 955L1132.5 960L1133.5 961L1133.5 966L1134.5 967L1134.5 972L1135.5 973L1135.5 998L1136.5 999L1136.5 1011L1137.5 1012L1137.5 1031L1136.5 1032L1136.5 1064L1135.5 1065L1135.5 1072L1134.5 1073L1134.5 1079L1133.5 1080L1133.5 1087L1132.5 1088L1131.5 1103L1130.5 1104L1130.5 1107L1129.5 1108L1129.5 1111L1128.5 1112L1127.5 1119L1125.5 1123L1125.5 1126L1124.5 1127L1124.5 1130L1123.5 1131L1123.5 1134L1122.5 1135L1122.5 1138L1121.5 1139L1121.5 1142L1120.5 1143L1120.5 1146L1119.5 1147L1119.5 1150L1118.5 1151L1118.5 1154L1116.5 1158L1116.5 1161L1115.5 1162L1114.5 1167L1112.5 1170L1111.5 1175L1109.5 1178L1109.5 1180L1105.5 1188L1104.5 1193L1097.5 1206L1097.5 1208L1085.5 1232L1083.5 1234L1079.5 1242L1075.5 1247L1074.5 1250L1072.5 1252L1071.5 1255L1069.5 1257L1068.5 1260L1066.5 1262L1062.5 1270L1056.5 1277L1054.5 1281L1051.5 1284L1051.5 1285L1048.5 1288L1048.5 1289L1045.5 1292L1045.5 1293L1042.5 1296L1042.5 1297L1026.5 1314L1026.5 1315L1015.5 1326L1015.5 1327L1004.5 1338L1004.5 1339L1003 1339.5L995 1347.5L994 1347.5L986 1355.5L985 1355.5L977 1363.5L976 1363.5L969 1369.5L965 1371.5L962 1374.5L961 1374.5L958 1377.5L957 1377.5L951 1382.5L947 1384.5L944 1387.5L938 1390.5L933 1394.5L930 1395.5L925 1399.5L922 1400.5L914 1406.5L886 1420.5L884 1420.5L881 1422.5L876 1423.5L873 1426.5L871 1426.5L863 1430.5L858 1431.5L855 1433.5L850 1434.5L847 1436.5L842 1437.5L839 1439.5L836 1439.5L832 1441.5L829 1441.5L825 1443.5L822 1443.5L821 1444.5L819 1444.5L815 1446.5L809 1446.5L803 1449.5L791 1450.5L786 1453.5L773 1454.5L772 1455.5L760 1456.5L759 1457.5L753 1457.5L752 1458.5L702 1458.5L701 1459.5L665 1459.5L664 1458.5L658 1458.5L657 1457.5L650 1457.5L649 1456.5L642 1456.5L641 1455.5L635 1455.5L634 1454.5L627 1454.5L626 1453.5L620 1453.5L619 1452.5L615 1452.5L614 1451.5L611 1451.5L610 1450.5L607 1450.5L606 1449.5L603 1449.5L602 1448.5L599 1448.5L598 1447.5L595 1447.5L594 1446.5L591 1446.5L590 1445.5L583 1444.5L582 1443.5L580 1443.5L579 1442.5L577 1442.5L576 1441.5L574 1441.5L573 1440.5L571 1440.5L570 1439.5L568 1439.5L567 1438.5L565 1438.5L564 1437.5L562 1437.5L561 1436.5L559 1436.5L558 1435.5L556 1435.5L552 1433.5L549 1433.5L539 1428.5L537 1428.5L530 1424.5L528 1424.5L523 1421.5L521 1421.5L514 1417.5L512 1417.5L508 1415.5L506 1413.5L495 1408.5L493 1406.5L479 1399.5L476 1396.5L475 1396.5L473 1394.5L466 1390.5L463 1387.5L462 1387.5L460 1385.5L459 1385.5L457 1383.5L456 1383.5L454 1381.5L447 1377.5L444 1374.5L437 1370.5L433 1366.5L432 1366.5L428 1362.5L427 1362.5L423 1358.5L422 1358.5L417 1353.5L416 1353.5L376.5 1314L376.5 1313L372.5 1309L372.5 1308L368.5 1304L368.5 1303L363.5 1298L363.5 1297L347.5 1278L347.5 1277L343.5 1272L342.5 1269L336.5 1261L335.5 1258L331.5 1253L330.5 1250L324.5 1242L314.5 1221L312.5 1219L303.5 1201L303.5 1199L301.5 1196L301.5 1194L299.5 1191L299.5 1189L297.5 1186L297.5 1184L295.5 1181L295.5 1179L291.5 1171L291.5 1169L290.5 1168L290.5 1166L288.5 1162L288.5 1159L287.5 1158L287.5 1156L285.5 1152L285.5 1149L283.5 1145L283.5 1142L281.5 1138L281.5 1135L280.5 1134L280.5 1132L278.5 1128L278.5 1124L277.5 1123L277.5 1119L276.5 1118L276.5 1114L275.5 1113L275.5 1109L274.5 1108L274.5 1104L273.5 1103L273.5 1099L272.5 1098L272.5 1093L271.5 1092L270.5 1076L269.5 1075L268.5 1059L267.5 1058L267.5 1024L266.5 1023L266.5 1019L267.5 1018L267.5 1014L268.5 1013L268.5 997L269.5 996L269.5 982L270.5 981L270.5 976L271.5 975L271.5 970L272.5 969L272.5 965L273.5 964L273.5 960L274.5 959L274.5 955L275.5 954L276.5 945L277.5 944L277.5 942L279.5 938L279.5 935L281.5 931L281.5 928L282.5 927L282.5 925L284.5 921L284.5 918L285.5 917L286.5 912L288.5 909L289.5 904L292.5 899L292.5 897L294.5 894L294.5 892L296.5 889L296.5 887L303.5 873L305.5 871L315.5 850L323.5 839L324.5 836L326.5 834L326.5 833L328.5 831L328.5 830L330.5 828L334.5 821L338.5 817L338.5 816L342.5 812L342.5 811L346.5 807L346.5 806L350.5 802L350.5 801L354.5 797L354.5 796L359.5 791L359.5 790L381 768.5L383.5 769L381.5 773L379.5 775L378.5 778L376.5 780L375.5 783L373.5 785L372.5 788L370.5 790L353.5 824L353.5 826L351.5 829L351.5 831L349.5 834L349.5 836L347.5 839L347.5 841L345.5 844L345.5 846L343.5 849L343.5 851L339.5 859L339.5 862L338.5 863L338.5 866L337.5 867L337.5 870L336.5 871L336.5 874L335.5 875L335.5 878L334.5 879L334.5 882L333.5 883L333.5 886L332.5 887L332.5 891L331.5 892L331.5 916L330.5 917L330.5 931L331.5 932L331.5 935L332.5 936L332.5 940L333.5 941L333.5 944L334.5 945L335.5 950L337.5 953L337.5 955L339.5 959L349.5 973L349.5 974L365 988.5L366 988.5L371 992.5L393 1003.5L398 1004.5L401 1006.5L403 1006.5L404 1007.5L406 1007.5L410 1009.5L413 1009.5L414 1010.5L417 1010.5L418 1011.5L425 1012.5L426 1013.5L433 1013.5L436 1015.5L440 1015.5L441 1016.5L461 1017.5L462 1018.5L465 1018.5L466 1019.5L469 1019.5L470 1020.5L523 1020.5L524 1021.5L528 1021.5L529 1020.5L550 1020.5L551 1019.5L554 1019.5L555 1018.5L558 1018.5L559 1017.5L571 1017.5L572 1016.5L577 1016.5L578 1015.5L580 1015.5L584 1013.5L593 1013.5L594 1012.5L596 1012.5L597 1011.5L599 1011.5L600 1010.5L602 1010.5L606 1008.5L613 1008.5L614 1007.5L616 1007.5L617 1006.5L619 1006.5L620 1005.5L622 1005.5L623 1004.5L625 1004.5L626 1003.5L628 1003.5L629 1002.5L631 1002.5L632 1001.5L634 1001.5L635 1000.5L637 1000.5L638 999.5L640 999.5L641 998.5L643 998.5L644 997.5L646 997.5L647 996.5L649 996.5L650 995.5L658 993.5L663 990.5L668 989.5L673 986.5L675 986.5L680 983.5L682 983.5L689 979.5L691 979.5L697 976.5L699 974.5L714 967.5L716 965.5L719 964.5L721 962.5L727 959.5L732 955.5L735 954.5L740 950.5L743 949.5L751 943.5L754 942.5L759 938.5L762 937.5L767 933.5L770 932.5L783 921.5L784 921.5L797 910.5L798 910.5L802 906.5L803 906.5L816 895.5L817 895.5L837 875.5L838 875.5L842.5 871L842.5 870L851.5 861L851.5 860L864.5 846L864.5 845L867.5 842L867.5 841L882.5 822L882.5 821L886.5 816L887.5 813L889.5 811L890.5 808L892.5 806L901.5 788L901.5 786L904.5 781L904.5 779L906.5 775L906.5 772L907.5 771L907.5 769L908.5 768L908.5 766L910.5 762L910.5 739L911.5 738L911.5 732L910.5 731L910.5 729L909.5 728L909.5 726L908.5 725L906.5 717L904.5 713L902.5 711L900.5 706L898.5 704L896.5 699L894.5 697L893.5 694L877 676.5L876 676.5L873 673.5L872 673.5L868 669.5L860 665.5L855 661.5L851 660.5L844 656.5L842 656.5L834 652.5L831 652.5L830 651.5L828 651.5L824 649.5L821 649.5L820 648.5L817 648.5L816 647.5L811 647.5L810 646.5L805 646.5L804 645.5L799 645.5L798 644.5L742 644.5L741 645.5L735 645.5L734 646.5L728 646.5L727 647.5L722 647.5L721 648.5L710 649.5L709 650.5L703 651.5L699 653.5L696 653.5L695 654.5L693 654.5L689 656.5L686 656.5L682 658.5L679 658.5L675 660.5L672 660.5L671 661.5L663 663.5L660 665.5L658 665.5L655 667.5L653 667.5L607 690.5L605 692.5L604 692.5L602 694.5L601 694.5L599 696.5L598 696.5L596 698.5L595 698.5L593 700.5L592 700.5L590 702.5L589 702.5L587 704.5L586 704.5L584 706.5L577 710.5L574 713.5L573 713.5L539.5 744L539.5 745L523.5 762L523.5 763L520.5 766L520.5 767L517.5 770L517.5 771L513.5 775L513.5 776L505.5 787L504.5 790L498.5 798L496.5 802L496.5 804L487.5 821L486.5 827L485.5 828L485.5 831L484.5 832L484.5 835L483.5 836L483.5 839L482.5 840L482.5 843L481.5 844L481.5 869L482.5 870L482.5 873L483.5 874L483.5 876L484.5 877L486.5 885L490.5 892L505 906.5L506 906.5L508 908.5L511 909.5L513 911.5L516 912.5L520 915.5L524 915.5L527 918.5L534 919.5L538 921.5L546 921.5L547 922.5L576 922.5L577 921.5L581 921.5L582 920.5L586 920.5L587 919.5L591 919.5L592 918.5L594 918.5L601 914.5L603 914.5L613 909.5L630.5 894L631.5 891L636.5 884L638.5 879L640.5 877L640.5 875L641.5 874L641.5 870L642.5 869L642.5 866L643.5 865L643.5 847L642.5 846L642.5 838L641.5 837L641.5 835L640.5 834L640.5 832L639.5 831L639.5 829L637.5 825L637.5 822L636.5 821L635.5 816L633.5 814L621.5 790L605.5 770L604.5 768L604.5 765L612 761.5L614 759.5L622 755.5L624 755.5L631 751.5L633 751.5L640 747.5L642 747.5L650 743.5L658 741.5L661 739.5L669 737.5L672 735.5L675 735.5L676 734.5L679 734.5L680 733.5L687 732.5L691 730.5L694 730.5L695 729.5L698 729.5L699 728.5L702 728.5L703 727.5L706 727.5L707 726.5L721 725.5L722 724.5L750 724.5L751 725.5L761 726.5L762 727.5L767 728.5L770 730.5L772 730.5L776 732.5L781 736.5L782 736.5L792.5 747L792.5 748L794.5 750L798.5 758L798.5 760L800.5 764L800.5 767L801.5 768L801.5 792L800.5 793L800.5 797L799.5 798L798.5 805L797.5 806L796.5 811L794.5 814L793.5 819L791.5 823L789.5 825L786.5 832L784.5 834L781.5 841L779.5 843L776.5 849L772.5 853L772.5 854L768.5 858L768.5 859L763.5 864L763.5 865L759.5 869L759.5 870L754.5 875L754.5 876L733 895.5L732 895.5L724 903.5L723 903.5L721 905.5L720 905.5L718 907.5L717 907.5L694 923.5L671 934.5L669 936.5L659 941.5L657 941.5L654 943.5L652 943.5L646 946.5L641 947.5L638 949.5L630 951.5L627 953.5L622 954.5L619 956.5L617 956.5L613 958.5L609 958.5L608 959.5L600 960.5L599 961.5L596 961.5L595 962.5L591 962.5L590 963.5L587 963.5L586 964.5L577 965.5L576 966.5L573 966.5L572 967.5L566 967.5L565 968.5L555 968.5L554 969.5L545 969.5L544 970.5L504 970.5L503 969.5L498 969.5L497 968.5L492 968.5L491 967.5L477 967.5L476 966.5L472 966.5L471 965.5L468 965.5L467 964.5L460 963.5L456 960.5L453 960.5L452 959.5L449 959.5L448 958.5L445 958.5L441 956.5L435 955.5L426 950.5L424 950.5L412 944.5L401 936.5L395 933.5L388.5 927L388.5 926L380.5 915L377.5 909L377.5 907L373.5 900L373.5 898L371.5 895L371.5 893L370.5 892L370.5 888L369.5 887L369.5 883L368.5 882L368.5 846L369.5 845L369.5 841L370.5 840L370.5 837L371.5 836L371.5 833L372.5 832L372.5 828L373.5 827L375.5 819L390.5 788L392.5 786L392.5 785L394.5 783L398.5 776L401.5 773L403.5 769L406.5 766L408.5 762L413.5 757L413.5 756L428.5 741L428.5 740L449 719.5L450 719.5L462 708.5L463 708.5L466 705.5L467 705.5L486 690.5L487 690.5L495 684.5L498 683.5L506 677.5L509 676.5L514 672.5L576 641.5L578 641.5L581 639.5L589 637.5L592 635.5L600 633.5L603 631.5L605 631.5L606 630.5L608 630.5L609 629.5L611 629.5L612 628.5L614 628.5L618 626.5L621 626.5L622 625.5L629 624.5L633 622.5L636 622.5L637 621.5L640 621.5L641 620.5L644 620.5L645 619.5L648 619.5L649 618.5L653 618.5L654 617.5L658 617.5L659 616.5L663 616.5L664 615.5L668 615.5L669 614.5L673 614.5L674 613.5L679 613.5L680 612.5L688 612.5L689 611.5L697 611.5L698 610.5L715 609.5Z"></path></svg>